<svg xmlns="http://www.w3.org/2000/svg" width="511.069" height="86.621" viewBox="0 0 511.069 86.621">
  <g id="Grupo_8" data-name="Grupo 8" transform="translate(-144.439 -256.807)">
    <path id="Caminho_1" data-name="Caminho 1" d="M191.829,276.392v-1.174a16.221,16.221,0,0,0-3.019-9.775,19.791,19.791,0,0,0-8.069-6.383,27.35,27.35,0,0,0-11.221-2.253,25.584,25.584,0,0,0-12.914,3.251,23.358,23.358,0,0,0-8.92,9.186,31.615,31.615,0,0,0-.039,27.832,23.232,23.232,0,0,0,8.807,9.187,24.863,24.863,0,0,0,12.692,3.253,28.861,28.861,0,0,0,8.16-1.145,18.061,18.061,0,0,0,6.934-3.813,14.676,14.676,0,0,0,3.741-5.31v9.519h3.848V283.636H166.548v3.848h20.983v2.272a16.357,16.357,0,0,1-2.1,8.62,12.787,12.787,0,0,1-6.1,5.121,25.429,25.429,0,0,1-9.885,1.722,22.411,22.411,0,0,1-11-2.56,17.168,17.168,0,0,1-7.065-7.469,30.327,30.327,0,0,1,0-24.092,17.217,17.217,0,0,1,7.065-7.434,22.586,22.586,0,0,1,11.073-2.56c5.651,0,10.084,1.262,13.176,3.749,3.06,2.463,4.611,5.95,4.611,10.365v1.174Z" fill="#fff"/>
    <path id="Caminho_2" data-name="Caminho 2" d="M235.528,279.767a18.371,18.371,0,0,0-7.045-7.008,23.434,23.434,0,0,0-21.212,0,18.314,18.314,0,0,0-7.085,7.009,21.217,21.217,0,0,0,0,20.129,18.576,18.576,0,0,0,7.082,7.045,23.136,23.136,0,0,0,21.217,0,18.645,18.645,0,0,0,7.043-7.044,21.217,21.217,0,0,0,0-20.129Zm-1.759,10.064c0,4.745-1.317,8.59-3.916,11.428s-6.622,4.26-12,4.26-9.41-1.433-12-4.26-3.916-6.683-3.916-11.428c0-4.694,1.318-8.513,3.916-11.353s6.623-4.259,12-4.259,9.41,1.433,12,4.259S233.769,285.137,233.769,289.831Z" fill="#fff"/>
    <path id="Caminho_3" data-name="Caminho 3" d="M274.346,270.97l-16.024,33.161-16.1-33.161h-4.636l18.4,37.8h4.6l18.4-37.8Z" fill="#fff"/>
    <path id="Caminho_4" data-name="Caminho 4" d="M314.976,278.216a15.7,15.7,0,0,0-6.575-5.958,21.088,21.088,0,0,0-9.363-2.037,20.566,20.566,0,0,0-10.443,2.541,17.3,17.3,0,0,0-6.749,7.02,22.884,22.884,0,0,0,0,20.174,17.3,17.3,0,0,0,6.749,7.02,20.591,20.591,0,0,0,10.443,2.54,23.639,23.639,0,0,0,8.995-1.649,15.51,15.51,0,0,0,6.422-4.648,10.913,10.913,0,0,0,2.394-6.942v-.951h-4.3v.951a7.973,7.973,0,0,1-3.286,6.795c-2.223,1.673-5.69,2.522-10.3,2.522-5.319,0-9.225-1.4-11.612-4.173a16.072,16.072,0,0,1-3.573-9.89H316.89l.094-.379a13.5,13.5,0,0,0,.274-1.558,15.665,15.665,0,0,0,.116-1.936A17.8,17.8,0,0,0,314.976,278.216Zm-1.212,10.3h0Zm-.462-1.611q0,.624-.023,1.223h-29.5a15.927,15.927,0,0,1,3.612-9.889c2.413-2.769,6.307-4.174,11.576-4.174,4.5,0,8.056,1.118,10.575,3.323C312.035,279.581,313.3,282.783,313.3,286.909Z" fill="#fff"/>
    <path id="Caminho_5" data-name="Caminho 5" d="M353.668,277.3a11.712,11.712,0,0,0-4.264-5.124,12.86,12.86,0,0,0-7.324-1.96,14.457,14.457,0,0,0-6.868,1.521,12.131,12.131,0,0,0-4.53,4.1A16.006,16.006,0,0,0,329.09,279V270.97h-3.922v37.8h4.372v-20.06c0-4.614.963-8.246,2.86-10.793,1.865-2.5,4.82-3.77,8.781-3.77,3.379,0,5.838.839,7.307,2.492,1.483,1.672,2.235,4.221,2.235,7.574v2.974h4.3V283.91A16.583,16.583,0,0,0,353.668,277.3Z" fill="#fff"/>
    <path id="Caminho_6" data-name="Caminho 6" d="M394.8,278.826a14.992,14.992,0,0,0-5.423-6.237,16.169,16.169,0,0,0-9.006-2.368,17.13,17.13,0,0,0-8.065,1.818,15.655,15.655,0,0,0-5.532,4.763,17.459,17.459,0,0,0-2.091,3.866v-9.7h-3.921v37.8h4.372V290.656c0-5.148,1.269-9.223,3.774-12.114,2.486-2.868,6.116-4.323,10.789-4.323,4.325,0,7.527,1.141,9.517,3.391,2.006,2.268,3.023,5.447,3.023,9.448v21.709h4.372V287.284A19.729,19.729,0,0,0,394.8,278.826Z" fill="#fff"/>
    <path id="Caminho_7" data-name="Caminho 7" d="M435.755,277.506a12.456,12.456,0,0,0-5.109-5.307,18.189,18.189,0,0,0-9.054-1.978,21.534,21.534,0,0,0-9.512,1.925,14.351,14.351,0,0,0-5.973,5.127,12.892,12.892,0,0,0-2.027,7.012v.875h4.3v-.875c0-3.509,1.085-6,3.315-7.613,2.25-1.628,5.53-2.453,9.749-2.453,4.242,0,7.3.861,9.1,2.561s2.691,4.495,2.691,8.33v2.862l-17.768,2.037a25.75,25.75,0,0,0-6.038,1.415,10.88,10.88,0,0,0-4.513,3.027,7.955,7.955,0,0,0-1.732,5.347,8.4,8.4,0,0,0,3.58,7.188,14.91,14.91,0,0,0,8.911,2.53,22.061,22.061,0,0,0,11.651-2.995,15.833,15.833,0,0,0,6.134-6.708v8.954h3.923V284.736A16.181,16.181,0,0,0,435.755,277.506Zm-2.523,13.944v.1a12.77,12.77,0,0,1-2.371,7.9,14.584,14.584,0,0,1-6.2,4.71,22.212,22.212,0,0,1-8.467,1.574c-3.07,0-5.324-.543-6.7-1.618a5.378,5.378,0,0,1-2.019-4.551c0-2.174.714-3.638,2.183-4.474a18.338,18.338,0,0,1,7.116-1.775Z" fill="#fff"/>
    <path id="Caminho_8" data-name="Caminho 8" d="M480.086,278.826a15,15,0,0,0-5.424-6.237,16.166,16.166,0,0,0-9-2.368,17.12,17.12,0,0,0-8.064,1.818,15.658,15.658,0,0,0-5.533,4.762,17.5,17.5,0,0,0-2.09,3.865v-9.7h-3.923v37.8h4.372V290.656c0-5.148,1.27-9.223,3.775-12.114,2.486-2.868,6.115-4.323,10.788-4.323,4.325,0,7.528,1.141,9.518,3.391,2.006,2.267,3.022,5.446,3.022,9.448v21.709h4.372V287.284A19.749,19.749,0,0,0,480.086,278.826Z" fill="#fff"/>
    <path id="Caminho_9" data-name="Caminho 9" d="M525.335,286.284v-.95a13.077,13.077,0,0,0-2.533-7.94,16.761,16.761,0,0,0-6.679-5.292A21.928,21.928,0,0,0,507,270.221a20.312,20.312,0,0,0-10.254,2.54,17.745,17.745,0,0,0-6.86,7.015,22.093,22.093,0,0,0,0,20.111,17.991,17.991,0,0,0,6.857,7.051A20.086,20.086,0,0,0,507,309.516a21.582,21.582,0,0,0,9.128-1.919,16.906,16.906,0,0,0,6.676-5.368,13.112,13.112,0,0,0,2.532-7.9v-.949h-4.3v.949a9.983,9.983,0,0,1-3.6,8.12c-2.419,1.989-5.93,3-10.436,3-5.317,0-9.225-1.416-11.611-4.209-2.407-2.816-3.627-6.653-3.627-11.4s1.22-8.588,3.627-11.4c2.386-2.793,6.294-4.209,11.611-4.209,4.505,0,8.016,1.008,10.436,2.995a10.073,10.073,0,0,1,3.6,8.2v.875Z" fill="#fff"/>
    <path id="Caminho_10" data-name="Caminho 10" d="M565.578,278.216A15.708,15.708,0,0,0,559,272.258a21.088,21.088,0,0,0-9.363-2.037,20.575,20.575,0,0,0-10.444,2.541,17.294,17.294,0,0,0-6.748,7.02,22.876,22.876,0,0,0,0,20.174,17.3,17.3,0,0,0,6.749,7.02,20.594,20.594,0,0,0,10.443,2.54,23.642,23.642,0,0,0,8.995-1.649,15.53,15.53,0,0,0,6.422-4.648,10.916,10.916,0,0,0,2.394-6.942v-.951h-4.3v.951a7.975,7.975,0,0,1-3.286,6.795c-2.224,1.673-5.69,2.522-10.3,2.522-5.317,0-9.224-1.4-11.611-4.173a16.066,16.066,0,0,1-3.573-9.89h33.112l.095-.379a13.342,13.342,0,0,0,.272-1.558,15.671,15.671,0,0,0,.116-1.936A17.791,17.791,0,0,0,565.578,278.216Zm-1.212,10.3h0Zm-.463-1.611c0,.416-.008.823-.021,1.223H534.377a15.932,15.932,0,0,1,3.611-9.889c2.413-2.769,6.308-4.174,11.576-4.174,4.5,0,8.057,1.118,10.576,3.323C562.637,279.581,563.9,282.783,563.9,286.909Z" fill="#fff"/>
    <path id="Caminho_11" data-name="Caminho 11" d="M577.946,304.837a19.362,19.362,0,0,1,.979-6.18A10.676,10.676,0,0,1,582.294,294a23.639,23.639,0,0,1,7.008-3.625l10.124-3.6a34.167,34.167,0,0,0,7.453-3.73,14.548,14.548,0,0,0,4.576-4.93,13.522,13.522,0,0,0,1.56-6.573,13.669,13.669,0,0,0-2.062-7.346,14.747,14.747,0,0,0-6.314-5.357,30,30,0,0,0-22.48.306,15.521,15.521,0,0,0-6.691,6.236,17.085,17.085,0,0,0-2.122,8.335v1.024h4.372v-1.324a12.776,12.776,0,0,1,1.688-6.746,10.528,10.528,0,0,1,5.159-4.183,24.35,24.35,0,0,1,9.14-1.461,25.658,25.658,0,0,1,8.3,1.171,9.98,9.98,0,0,1,4.966,3.456,9.84,9.84,0,0,1,1.667,5.889,10.86,10.86,0,0,1-1,4.873,9.324,9.324,0,0,1-3.205,3.482,31.973,31.973,0,0,1-6.335,3.091l-10.792,3.9a26.89,26.89,0,0,0-8.018,4.32,14.38,14.38,0,0,0-4.346,6.055,24.627,24.627,0,0,0-1.3,8.531v2.973h39.22V304.7H588Z" fill="#fff"/>
    <path id="Caminho_12" data-name="Caminho 12" d="M651.135,270.97v18.037c0,5.2-1.27,9.283-3.773,12.149-2.488,2.845-6.118,4.288-10.79,4.288-4.376,0-7.6-1.141-9.594-3.391-2.005-2.267-3.021-5.421-3.021-9.374V270.97h-4.3v21.484a20.068,20.068,0,0,0,1.77,8.453,14.726,14.726,0,0,0,5.388,6.242,16.162,16.162,0,0,0,9.005,2.367,17.012,17.012,0,0,0,8.144-1.857,16.566,16.566,0,0,0,5.562-4.754,16.034,16.034,0,0,0,2.057-3.736v9.6h3.923v-37.8Z" fill="#fff"/>
    <g id="Grupo_6" data-name="Grupo 6">
      <g id="Grupo_1" data-name="Grupo 1">
        <path id="Caminho_13" data-name="Caminho 13" d="M175.315,325.929c-2.989,0-4.609,1.291-5.065,3.723H170v-3.47h-3.52v16.906h3.8v-7.637h.177c.431,2.228,2.052,3.672,4.989,3.672,3.824,0,5.951-2.558,5.951-6.585S179.214,325.929,175.315,325.929Zm-1.342,9.724c-2.381,0-3.7-.759-3.7-2.937v-.2c0-2.254,1.266-3.089,3.723-3.089,2.406,0,3.545.785,3.545,3.114C177.543,334.843,176.4,335.653,173.973,335.653Z" fill="#fff"/>
        <path id="Caminho_14" data-name="Caminho 14" d="M193.129,326.182v3.064h-.2c-.4-2.2-2.254-3.317-4.837-3.317-3.8,0-6.1,2.279-6.1,5.825,0,3.57,2.178,5.824,5.951,5.824,2.836,0,4.331-1.292,4.736-3.166h.2v2.862c0,2.482-.734,2.988-3.165,2.988-2.583,0-3.14-.43-3.14-1.848h-3.8c0,3.19,2.583,5.014,6.686,5.014,4.533,0,7.217-1.976,7.217-6.407V326.182Zm-.254,5.7c0,1.747-1.19,2.431-3.621,2.431-2.38,0-3.444-.684-3.444-2.557s1.064-2.533,3.495-2.533c2.355,0,3.57.658,3.57,2.38Z" fill="#fff"/>
      </g>
      <g id="Grupo_5" data-name="Grupo 5">
        <g id="Grupo_2" data-name="Grupo 2">
          <path id="Caminho_15" data-name="Caminho 15" d="M204.628,326.2h-3.8v4.061h-2v3.14h2v5.1c0,3.191,1.8,4.584,4.761,4.584h3.14v-3.419h-2.279c-1.342,0-1.823-.329-1.823-1.6V333.4h4.1v-3.14h-4.1Z" fill="#fff"/>
          <path id="Caminho_16" data-name="Caminho 16" d="M229.464,330.268l.016,6.449c0,2.152-.886,3.115-3.368,3.115-2.4,0-3.266-.861-3.266-2.913v-6.634h-4a3.93,3.93,0,0,0-4.254,3.483h-.228v-3.505h-3.52v12.825h3.8v-7.344c0-1.6.607-2.381,2.3-2.381,1.545,0,2.1.608,2.1,2v2.822c0,2.836,1.7,5.039,5.267,5.039,3.343,0,4.888-2,5.217-4.128h.2v3.991h3.545l-.016-12.82Z" fill="#fff"/>
        </g>
        <g id="Grupo_3" data-name="Grupo 3">
          <path id="Caminho_17" data-name="Caminho 17" d="M234.7,338.6v-.077h3.8v.228c0,1.14.709,1.444,2.862,1.444,2.026,0,2.507-.329,2.507-1.089,0-.709-.38-.912-1.874-1.114l-3.571-.431c-2.532-.278-3.95-1.418-3.95-3.545,0-2.228,1.9-4,6.255-4,4.153,0,6.508,1.57,6.508,4.659v.076h-3.8v-.152c0-1.038-.507-1.57-2.837-1.57-1.9,0-2.38.329-2.38,1.14,0,.658.354.937,2.026,1.139l2.709.33c3.394.38,4.66,1.519,4.66,3.621,0,2.38-2.355,3.95-6.28,3.95C237.051,343.2,234.7,341.532,234.7,338.6Z" fill="#fff"/>
        </g>
        <g id="Grupo_4" data-name="Grupo 4">
          <path id="Caminho_18" data-name="Caminho 18" d="M254.669,343.088c-2.963,0-4.761-1.393-4.761-4.584v-5.1h-2v-3.14h2v-4.088h3.8v4.088h4.6v3.14h-4.6v4.671c0,1.266.98,1.6,2.322,1.6h2.28v3.419Z" fill="#fff"/>
        </g>
      </g>
    </g>
    <g id="Grupo_7" data-name="Grupo 7">
      <path id="Caminho_19" data-name="Caminho 19" d="M148.907,330.018a2.717,2.717,0,0,1,2.387.97,6.176,6.176,0,0,1,.684,3.4,5.277,5.277,0,0,1-.852,3.415,4.006,4.006,0,0,1-3.129.987q-.709,0-2.345-.134l-.471-.051V326.509h1.248v4.1A5.9,5.9,0,0,1,148.907,330.018Zm-.926,7.641a2.547,2.547,0,0,0,2.183-.751,4.542,4.542,0,0,0,.531-2.539,5.306,5.306,0,0,0-.421-2.5,1.6,1.6,0,0,0-1.5-.717,5.9,5.9,0,0,0-2.007.371l-.337.118v5.937Q147.524,337.658,147.981,337.659Z" fill="#fff"/>
      <path id="Caminho_20" data-name="Caminho 20" d="M153.107,330.186h1.265l2.109,7.337h.556l2.125-7.337h1.265l-3.508,12.178h-1.265l1.1-3.745H155.5Z" fill="#fff"/>
    </g>
  </g>
</svg>
