<svg xmlns="http://www.w3.org/2000/svg" width="169.211" height="35.699" viewBox="0 0 169.211 35.699">
  <g id="Grupo_55" data-name="Grupo 55" transform="translate(-617.023 -449.198)">
    <path id="Caminho_40" data-name="Caminho 40" d="M662.888,467.039c.012-.016.023-.033.034-.05s.019-.036.028-.054.016-.036.023-.055.013-.04.018-.06.009-.038.012-.057,0-.045.005-.067a.229.229,0,0,0,0-.037l0-.019c0-.022,0-.043-.007-.065s-.006-.04-.011-.06-.01-.03-.015-.045a.47.47,0,0,0-.03-.077l-.009-.018a.635.635,0,0,0-.071-.106l-13.424-16.837-.013-.014a.544.544,0,0,0-.048-.048.486.486,0,0,0-.041-.038.584.584,0,0,0-.051-.035l-.053-.032c-.016-.008-.034-.014-.051-.021a.553.553,0,0,0-.065-.023l-.017-.007c-.012,0-.024,0-.037,0A.489.489,0,0,0,649,449.2a.387.387,0,0,0-.059,0c-.021,0-.041,0-.062,0l-.059.011c-.02,0-.039.009-.059.015l-.056.022c-.019.008-.037.017-.054.026s-.038.024-.056.036-.021.013-.031.021l-10.166,8.1-3.413-4.281-.013-.014c-.014-.016-.03-.031-.046-.046a.506.506,0,0,0-.041-.039c-.017-.013-.035-.024-.052-.035s-.034-.022-.051-.031a.537.537,0,0,0-.055-.023.46.46,0,0,0-.062-.023l-.019-.007c-.013,0-.025,0-.038-.005s-.028-.007-.042-.009h-.023c-.022,0-.044,0-.066,0l-.053,0c-.024,0-.046.008-.069.013l-.05.013a.668.668,0,0,0-.062.025.509.509,0,0,0-.1.059c-.01.007-.021.013-.031.021l-16.849,13.433c-.01.008-.017.018-.027.026s-.032.03-.047.047a.4.4,0,0,0-.037.046c-.012.017-.024.033-.035.051s-.019.035-.028.053-.016.037-.023.056a.584.584,0,0,0-.017.059.537.537,0,0,0-.012.058.492.492,0,0,0-.006.066c0,.013,0,.025,0,.037l0,.019a.487.487,0,0,0,.008.066.5.5,0,0,0,.01.056c0,.02.012.038.018.057a.612.612,0,0,0,.023.059c.008.016.018.032.027.048a.543.543,0,0,0,.037.057l.011.017,13.433,16.849.012.012a.646.646,0,0,0,.07.069l.027.024a.62.62,0,0,0,.112.07l.021.007a.543.543,0,0,0,.1.035h.006a.673.673,0,0,0,.135.016h.009c.02,0,.041,0,.061-.005s.028,0,.041,0l.055-.014c.019-.005.038-.01.057-.017a.678.678,0,0,0,.083-.036c.009-.005.017-.012.025-.017a.526.526,0,0,0,.063-.042l0,0,10.165-8.1,3.413,4.281.012.012a.667.667,0,0,0,.071.069c.009.008.017.017.026.024a.616.616,0,0,0,.112.07l.021.007a.632.632,0,0,0,.1.035h.006a.671.671,0,0,0,.135.016h.009c.02,0,.041,0,.061-.005a.273.273,0,0,0,.041,0c.019,0,.037-.009.055-.013s.038-.01.057-.017a.555.555,0,0,0,.083-.037.214.214,0,0,0,.025-.016.535.535,0,0,0,.063-.042l0,0,16.848-13.434a.324.324,0,0,0,.027-.026c.016-.015.033-.03.047-.046A.554.554,0,0,0,662.888,467.039Zm-30.1-3.934,2.014-8.176,3.011,3.776h0l3.8,4.769,5.636,7.069-2.014,8.176Zm4.269,7.36-3.482,2.776-5.049-6.331,3.483-2.777,1.662,2.084Zm-6.276,11.981-11.85-14.863,8.42-.142,5.444,6.828Zm.771-19.547-4.127,3.29-7.949.135L633.45,455.18ZM649.256,451.2l11.85,14.862-8.42.143-5.444-6.829Zm-2.793,9.2,5.048,6.332-3.482,2.776-5.049-6.332Zm2.022,10.343,4.128-3.291,7.948-.134L646.584,478.47Zm-.578-19.3-1.9,7.718-3.8,3.034-3.024-3.792Zm-15.78,30.74,1.9-7.719,3.8-3.034,3.024,3.792Z" fill="#fff"/>
    <g id="Grupo_54" data-name="Grupo 54">
      <g id="Grupo_53" data-name="Grupo 53">
        <g id="Grupo_52" data-name="Grupo 52">
          <g id="Grupo_47" data-name="Grupo 47">
            <path id="Caminho_41" data-name="Caminho 41" d="M679.555,462.268c-3.865,0-5.961,1.67-6.55,4.814h-.328V462.6h-4.551v21.861h4.912v-9.876h.229c.557,2.882,2.653,4.749,6.451,4.749,4.945,0,7.7-3.308,7.7-8.515S684.6,462.268,679.555,462.268Zm-1.736,12.575c-3.078,0-4.781-.982-4.781-3.8v-.262c0-2.914,1.637-4,4.814-4,3.111,0,4.584,1.016,4.584,4.028C682.436,473.8,680.963,474.843,677.819,474.843Z" fill="#fff"/>
            <path id="Caminho_42" data-name="Caminho 42" d="M702.591,462.6v3.962h-.262c-.524-2.849-2.914-4.29-6.255-4.29-4.912,0-7.892,2.948-7.892,7.532,0,4.618,2.816,7.532,7.7,7.532,3.668,0,5.6-1.67,6.124-4.093h.262v3.7c0,3.21-.95,3.865-4.094,3.865-3.34,0-4.061-.557-4.061-2.391H689.2c0,4.126,3.34,6.484,8.646,6.484,5.862,0,9.333-2.554,9.333-8.285V462.6Zm-.327,7.368c0,2.259-1.539,3.144-4.683,3.144-3.079,0-4.454-.885-4.454-3.308s1.375-3.275,4.519-3.275c3.046,0,4.618.852,4.618,3.079Z" fill="#fff"/>
          </g>
          <g id="Grupo_51" data-name="Grupo 51">
            <g id="Grupo_48" data-name="Grupo 48">
              <path id="Caminho_43" data-name="Caminho 43" d="M717.462,462.621h-4.913v5.252h-2.587v4.061h2.587v6.6c0,4.126,2.325,5.927,6.157,5.927h4.061v-4.421H719.82c-1.736,0-2.358-.425-2.358-2.063v-6.039h5.305v-4.061h-5.305Z" fill="#fff"/>
              <path id="Caminho_44" data-name="Caminho 44" d="M749.58,467.88l.021,8.339c0,2.783-1.147,4.028-4.356,4.028-3.111,0-4.224-1.114-4.224-3.766V467.9h-5.175a5.082,5.082,0,0,0-5.5,4.505h-.295v-4.533H725.5v16.584h4.912v-9.5c0-2.063.786-3.078,2.98-3.078,2,0,2.718.786,2.718,2.587v3.649c0,3.668,2.194,6.517,6.812,6.517,4.323,0,6.32-2.587,6.746-5.338h.262v5.16h4.585l-.021-16.577Z" fill="#fff"/>
            </g>
            <g id="Grupo_49" data-name="Grupo 49">
              <path id="Caminho_45" data-name="Caminho 45" d="M756.345,478.647v-.1h4.912v.294c0,1.474.917,1.867,3.7,1.867,2.62,0,3.242-.426,3.242-1.408,0-.917-.491-1.179-2.423-1.441l-4.618-.557c-3.275-.36-5.109-1.834-5.109-4.584,0-2.882,2.456-5.175,8.089-5.175,5.371,0,8.416,2.031,8.416,6.026v.1h-4.912v-.2c0-1.343-.655-2.031-3.668-2.031-2.456,0-3.078.426-3.078,1.474,0,.852.459,1.212,2.62,1.474l3.5.426c4.388.491,6.026,1.964,6.026,4.682,0,3.079-3.046,5.109-8.122,5.109C759.391,484.607,756.345,482.446,756.345,478.647Z" fill="#fff"/>
            </g>
            <g id="Grupo_50" data-name="Grupo 50">
              <path id="Caminho_46" data-name="Caminho 46" d="M782.174,484.457c-3.832,0-6.157-1.8-6.157-5.927v-6.6H773.43v-4.061h2.587v-5.287h4.912v5.287h5.3v4.061h-5.3v6.039c0,1.638.622,2.063,2.358,2.063h2.947v4.421Z" fill="#fff"/>
            </g>
          </g>
        </g>
      </g>
    </g>
  </g>
</svg>
